2.2Hz3min_grf.mot
version=1
nRows=25
nColumns 19
inDegrees=yes
endheader
time	1_ground_force_vx	1_ground_force_vy	1_ground_force_vz	1_ground_force_px	1_ground_force_py	1_ground_force_pz	1_ground_torque_x	1_ground_torque_y	1_ground_torque_z	2_ground_force_vx	2_ground_force_vy	2_ground_force_vz	2_ground_force_px	2_ground_force_py	2_ground_force_pz	2_ground_torque_x	2_ground_torque_y	2_ground_torque_z
            2.502500	           26.459005	          471.453782	          -52.660090	           -0.193201	            0.006032	           -0.359113	            0.007330	            0.130606	           -0.014588	            8.074076	          468.881189	           52.070168	           -0.194095	            0.005866	           -0.720936	            0.001020	            0.059241	            0.006579
            2.503000	           26.087042	          478.851319	          -54.186589	           -0.193244	            0.006032	           -0.359029	            0.002649	            0.048621	           -0.005502	            7.487944	          475.687314	           53.596417	           -0.194039	            0.005866	           -0.721052	            0.000365	            0.023216	            0.002616
            2.503500	           26.081336	          485.168452	          -55.993772	           -0.193471	            0.006033	           -0.359260	            0.007651	            0.142320	           -0.016425	            6.712919	          482.862383	           54.748636	           -0.194017	            0.005867	           -0.721139	           -0.002346	           -0.168753	           -0.019134
            2.504000	           26.214489	          494.186480	          -57.056007	           -0.193752	            0.006031	           -0.358854	            0.010714	            0.201976	           -0.023319	            6.128760	          489.116192	           56.225986	           -0.193618	            0.005869	           -0.721312	           -0.002230	           -0.177963	           -0.020458
            2.504500	           26.436838	          502.487986	          -59.176244	           -0.193598	            0.006030	           -0.358634	            0.010481	            0.199210	           -0.023460	            5.213268	          496.290084	           57.565977	           -0.193954	            0.005868	           -0.721536	           -0.001657	           -0.157746	           -0.018297
            2.505000	           26.798769	          509.524544	          -60.568546	           -0.193904	            0.006031	           -0.358766	            0.008269	            0.157223	           -0.018689	            4.672575	          503.465329	           58.905808	           -0.193846	            0.005870	           -0.721753	           -0.000654	           -0.070431	           -0.008240
            2.505500	           26.746519	          517.825149	          -62.504684	           -0.193861	            0.006030	           -0.358543	            0.005319	            0.102973	           -0.012429	            4.093007	          508.430595	           60.237775	           -0.193499	            0.005870	           -0.721478	            0.000115	            0.014319	            0.001696
            2.506000	           26.420836	          524.681338	          -63.896036	           -0.194029	            0.006030	           -0.358641	            0.000911	            0.018097	           -0.002204	            3.881613	          515.238514	           61.623081	           -0.193718	            0.005869	           -0.721577	            0.000071	            0.009415	            0.001126
            2.506500	           25.910675	          533.882034	          -65.552044	           -0.194285	            0.006028	           -0.358293	            0.001347	            0.027762	           -0.003409	            3.388516	          522.229180	           63.149948	           -0.193877	            0.005871	           -0.722107	            0.000180	            0.027739	            0.003354
            2.507000	           25.630559	          541.639666	          -66.985513	           -0.194577	            0.006028	           -0.358245	            0.003411	            0.072075	           -0.008914	            2.945552	          528.299462	           64.579653	           -0.193836	            0.005871	           -0.722183	           -0.000319	           -0.057240	           -0.006997
            2.507500	           25.487254	          549.578800	          -68.693679	           -0.194584	            0.006027	           -0.358083	            0.006246	            0.134685	           -0.016835	            2.872569	          535.661605	           65.638373	           -0.194138	            0.005871	           -0.722419	           -0.000670	           -0.124964	           -0.015313
            2.508000	           25.986356	          557.336900	          -70.174934	           -0.194818	            0.006027	           -0.358081	            0.005465	            0.117210	           -0.014758	            2.527874	          540.443971	           66.875727	           -0.193862	            0.005871	           -0.722222	           -0.000293	           -0.062720	           -0.007761
            2.508500	           25.751626	          565.095327	          -71.791941	           -0.194805	            0.006027	           -0.358059	            0.003828	            0.083997	           -0.010671	            2.458962	          546.700478	           68.118218	           -0.193983	            0.005871	           -0.722329	            0.000258	            0.057363	            0.007147
            2.509000	           25.929272	          573.394797	          -73.453520	           -0.195132	            0.006027	           -0.357945	            0.001015	            0.022441	           -0.002875	            2.339815	          553.878083	           69.223237	           -0.194115	            0.005872	           -0.722822	            0.000432	            0.102357	            0.012792
            2.509500	           25.511452	          580.251755	          -75.028069	           -0.195075	            0.006027	           -0.357921	           -0.001358	           -0.030883	            0.003993	            2.461002	          559.398247	           70.556876	           -0.194235	            0.005872	           -0.722774	            0.000690	            0.156847	            0.019783
            2.510000	           25.230896	          588.550743	          -76.596791	           -0.195144	            0.006026	           -0.357798	            0.000485	            0.011312	           -0.001472	            2.349187	          564.550075	           71.701588	           -0.194132	            0.005871	           -0.722557	            0.000349	            0.083951	            0.010662
            2.510500	           24.950195	          595.768788	          -78.307722	           -0.195014	            0.006027	           -0.357937	            0.002793	            0.066703	           -0.008767	            2.560606	          570.992636	           72.709968	           -0.194543	            0.005871	           -0.722859	           -0.000035	           -0.007709	           -0.000982
            2.511000	           24.578538	          604.607467	          -79.598754	           -0.195322	            0.006025	           -0.357616	            0.002071	            0.050955	           -0.006708	            2.869569	          576.331740	           73.385876	           -0.194510	            0.005872	           -0.723007	           -0.000551	           -0.110718	           -0.014098
            2.511500	           24.389475	          611.465256	          -81.357310	           -0.195365	            0.006025	           -0.357515	            0.001199	            0.030069	           -0.004001	            3.035448	          582.406017	           74.346042	           -0.194533	            0.005872	           -0.723128	           -0.000161	           -0.030893	           -0.003944
            2.512000	           24.154811	          618.863091	          -82.975863	           -0.195467	            0.006026	           -0.357862	            0.001730	            0.044318	           -0.005942	            3.440187	          587.192307	           75.207652	           -0.194516	            0.005871	           -0.722876	            0.000617	            0.105369	            0.013496
            2.512500	           23.920066	          627.342506	          -84.543910	           -0.195688	            0.006025	           -0.357577	           -0.002463	           -0.064598	            0.008706	            3.511098	          593.634025	           76.309963	           -0.194739	            0.005872	           -0.723351	            0.000721	            0.121862	            0.015665
            2.513000	           23.410344	          634.740287	          -86.161781	           -0.195759	            0.006025	           -0.357563	           -0.004654	           -0.126187	            0.017129	            4.006111	          599.342377	           76.940171	           -0.194836	            0.005872	           -0.723337	            0.000538	            0.080560	            0.010342
            2.513500	           23.359463	          641.777219	          -87.644778	           -0.195997	            0.006025	           -0.357557	            0.000343	            0.009420	           -0.001286	            4.552187	          603.944091	           78.082632	           -0.194902	            0.005871	           -0.723338	            0.000562	            0.074606	            0.009646
            2.514000	           22.712340	          650.976906	          -89.071153	           -0.195965	            0.006024	           -0.357275	           -0.000655	           -0.018775	            0.002569	            5.096853	          608.914755	           79.038696	           -0.195056	            0.005871	           -0.723470	           -0.000483	           -0.057700	           -0.007490
            2.514500	           22.339204	          658.556583	          -91.055439	           -0.196076	            0.006023	           -0.357115	           -0.000782	           -0.023053	            0.003187	            5.357637	          614.621971	           79.715938	           -0.195211	            0.005871	           -0.723485	           -0.000746	           -0.085636	           -0.011107
